<svg width="1280" height="780" viewBox="0 0 1280 780" fill="none" xmlns="http://www.w3.org/2000/svg">
  <defs>
    <linearGradient id="askBg" x1="52" y1="42" x2="1216" y2="740" gradientUnits="userSpaceOnUse">
      <stop stop-color="#0A1624"/>
      <stop offset="1" stop-color="#09111B"/>
    </linearGradient>
    <linearGradient id="askAccent" x1="785" y1="154" x2="1174" y2="622" gradientUnits="userSpaceOnUse">
      <stop stop-color="#7DD3FC" stop-opacity="0.24"/>
      <stop offset="1" stop-color="#14B8A6" stop-opacity="0"/>
    </linearGradient>
  </defs>

  <rect width="1280" height="780" rx="34" fill="#050A14"/>
  <rect x="24" y="24" width="1232" height="732" rx="28" fill="url(#askBg)" stroke="#173446" stroke-width="2"/>
  <rect x="24" y="24" width="1232" height="732" rx="28" fill="url(#askAccent)"/>

  <rect x="52" y="52" width="244" height="676" rx="24" fill="#0C1724"/>
  <rect x="322" y="52" width="904" height="84" rx="24" fill="#0D1B29"/>
  <rect x="322" y="160" width="378" height="546" rx="28" fill="#0C1724"/>
  <rect x="724" y="160" width="502" height="254" rx="28" fill="#0C1724"/>
  <rect x="724" y="438" width="502" height="268" rx="28" fill="#0C1724"/>

  <text x="84" y="98" fill="#E6F3FF" font-family="Segoe UI, Arial, sans-serif" font-size="22" font-weight="700">CITADEL</text>
  <rect x="84" y="164" width="156" height="34" rx="17" fill="#123447"/>
  <text x="108" y="186" fill="#D7F4FF" font-family="Segoe UI, Arial, sans-serif" font-size="13" font-weight="700">Ask workbench</text>
  <text x="84" y="242" fill="#A7C0D2" font-family="Segoe UI, Arial, sans-serif" font-size="15">Documents</text>
  <text x="84" y="278" fill="#A7C0D2" font-family="Segoe UI, Arial, sans-serif" font-size="15">Ingestion</text>
  <text x="84" y="314" fill="#A7C0D2" font-family="Segoe UI, Arial, sans-serif" font-size="15">Evals</text>
  <text x="84" y="350" fill="#A7C0D2" font-family="Segoe UI, Arial, sans-serif" font-size="15">Status</text>
  <text x="84" y="386" fill="#A7C0D2" font-family="Segoe UI, Arial, sans-serif" font-size="15">Settings</text>

  <text x="356" y="98" fill="#F8FBFF" font-family="Segoe UI, Arial, sans-serif" font-size="24" font-weight="700">Grounded query workbench</text>

  <text x="356" y="204" fill="#E6F3FF" font-family="Segoe UI, Arial, sans-serif" font-size="22" font-weight="700">Run a query</text>
  <rect x="356" y="230" width="312" height="126" rx="22" fill="#112133"/>
  <rect x="378" y="264" width="240" height="16" rx="8" fill="#DCE9F7"/>
  <rect x="378" y="292" width="196" height="12" rx="6" fill="#8AA6BD"/>
  <rect x="378" y="320" width="166" height="12" rx="6" fill="#8AA6BD"/>
  <rect x="356" y="376" width="166" height="42" rx="21" fill="#7DD3FC"/>
  <rect x="536" y="376" width="116" height="42" rx="21" fill="#123447"/>
  <text x="393" y="403" fill="#07111D" font-family="Segoe UI, Arial, sans-serif" font-size="15" font-weight="700">Run query</text>
  <text x="564" y="403" fill="#D6F4FF" font-family="Segoe UI, Arial, sans-serif" font-size="15" font-weight="700">Debug trace</text>

  <rect x="356" y="452" width="312" height="98" rx="22" fill="#0F1C2A"/>
  <text x="378" y="486" fill="#E6F3FF" font-family="Segoe UI, Arial, sans-serif" font-size="17" font-weight="700">Retrieval posture</text>
  <text x="378" y="514" fill="#89A8BF" font-family="Segoe UI, Arial, sans-serif" font-size="13">BM25, dense, graph expansion, cross-encoder rerank</text>
  <rect x="378" y="526" width="124" height="10" rx="5" fill="#163549"/>
  <rect x="378" y="526" width="86" height="10" rx="5" fill="#5EEAD4"/>
  <text x="514" y="535" fill="#D7F4FF" font-family="Segoe UI, Arial, sans-serif" font-size="11">latency 642 ms</text>

  <text x="758" y="202" fill="#F8FBFF" font-family="Segoe UI, Arial, sans-serif" font-size="22" font-weight="700">Answer with citations</text>
  <rect x="758" y="226" width="434" height="66" rx="20" fill="#112133"/>
  <rect x="1084" y="240" width="82" height="24" rx="12" fill="#123447"/>
  <rect x="780" y="246" width="266" height="12" rx="6" fill="#DCE9F7"/>
  <rect x="780" y="268" width="232" height="12" rx="6" fill="#DCE9F7"/>

  <rect x="758" y="306" width="434" height="74" rx="20" fill="#0F1C2A"/>
  <rect x="1070" y="320" width="96" height="24" rx="12" fill="#123726"/>
  <rect x="780" y="328" width="288" height="12" rx="6" fill="#DCE9F7"/>
  <rect x="780" y="350" width="248" height="12" rx="6" fill="#DCE9F7"/>

  <text x="758" y="480" fill="#F8FBFF" font-family="Segoe UI, Arial, sans-serif" font-size="22" font-weight="700">Trace diagnostics</text>
  <rect x="758" y="506" width="434" height="48" rx="18" fill="#112133"/>
  <rect x="758" y="570" width="434" height="48" rx="18" fill="#112133"/>
  <rect x="758" y="634" width="434" height="48" rx="18" fill="#112133"/>
  <circle cx="786" cy="530" r="8" fill="#7DD3FC"/>
  <circle cx="786" cy="594" r="8" fill="#5EEAD4"/>
  <circle cx="786" cy="658" r="8" fill="#F59E0B"/>
  <rect x="808" y="524" width="252" height="12" rx="6" fill="#DCE9F7"/>
  <rect x="808" y="588" width="286" height="12" rx="6" fill="#DCE9F7"/>
  <rect x="808" y="652" width="238" height="12" rx="6" fill="#DCE9F7"/>
</svg>
