<svg width="1280" height="780" viewBox="0 0 1280 780" fill="none" xmlns="http://www.w3.org/2000/svg">
  <defs>
    <linearGradient id="statusBg" x1="56" y1="48" x2="1218" y2="732" gradientUnits="userSpaceOnUse">
      <stop stop-color="#0A1624"/>
      <stop offset="1" stop-color="#09111B"/>
    </linearGradient>
  </defs>

  <rect width="1280" height="780" rx="34" fill="#050A14"/>
  <rect x="24" y="24" width="1232" height="732" rx="28" fill="url(#statusBg)" stroke="#173446" stroke-width="2"/>

  <rect x="52" y="52" width="1176" height="88" rx="24" fill="#0D1B29"/>
  <rect x="52" y="164" width="334" height="540" rx="28" fill="#0C1724"/>
  <rect x="410" y="164" width="818" height="540" rx="28" fill="#0C1724"/>

  <text x="84" y="98" fill="#F8FBFF" font-family="Segoe UI, Arial, sans-serif" font-size="26" font-weight="700">Status and provider posture</text>

  <text x="84" y="210" fill="#F8FBFF" font-family="Segoe UI, Arial, sans-serif" font-size="22" font-weight="700">Service readiness</text>
  <rect x="84" y="238" width="270" height="74" rx="22" fill="#112133"/>
  <rect x="84" y="330" width="270" height="74" rx="22" fill="#112133"/>
  <rect x="84" y="422" width="270" height="74" rx="22" fill="#112133"/>
  <circle cx="112" cy="275" r="8" fill="#5EEAD4"/>
  <circle cx="112" cy="367" r="8" fill="#5EEAD4"/>
  <circle cx="112" cy="459" r="8" fill="#F59E0B"/>
  <text x="136" y="270" fill="#E6F3FF" font-family="Segoe UI, Arial, sans-serif" font-size="15" font-weight="700">API ready</text>
  <rect x="136" y="286" width="132" height="10" rx="5" fill="#8DA9BF"/>
  <text x="136" y="362" fill="#E6F3FF" font-family="Segoe UI, Arial, sans-serif" font-size="15" font-weight="700">Graph available</text>
  <rect x="136" y="378" width="146" height="10" rx="5" fill="#8DA9BF"/>
  <text x="136" y="454" fill="#E6F3FF" font-family="Segoe UI, Arial, sans-serif" font-size="15" font-weight="700">Generator optional</text>
  <rect x="136" y="470" width="154" height="10" rx="5" fill="#8DA9BF"/>

  <text x="444" y="210" fill="#F8FBFF" font-family="Segoe UI, Arial, sans-serif" font-size="22" font-weight="700">Dependencies</text>
  <rect x="444" y="238" width="356" height="120" rx="24" fill="#112133"/>
  <rect x="836" y="238" width="356" height="120" rx="24" fill="#112133"/>
  <rect x="444" y="384" width="356" height="120" rx="24" fill="#112133"/>
  <rect x="836" y="384" width="356" height="120" rx="24" fill="#112133"/>
  <rect x="444" y="530" width="356" height="120" rx="24" fill="#112133"/>
  <rect x="836" y="530" width="356" height="120" rx="24" fill="#112133"/>

  <text x="472" y="274" fill="#E6F3FF" font-family="Segoe UI, Arial, sans-serif" font-size="16" font-weight="700">PostgreSQL</text>
  <rect x="472" y="290" width="152" height="10" rx="5" fill="#8DA9BF"/>
  <rect x="472" y="314" width="104" height="26" rx="13" fill="#123726"/>

  <text x="864" y="274" fill="#E6F3FF" font-family="Segoe UI, Arial, sans-serif" font-size="16" font-weight="700">OpenSearch</text>
  <rect x="864" y="290" width="134" height="10" rx="5" fill="#8DA9BF"/>
  <rect x="864" y="314" width="104" height="26" rx="13" fill="#123726"/>

  <text x="472" y="420" fill="#E6F3FF" font-family="Segoe UI, Arial, sans-serif" font-size="16" font-weight="700">Qdrant</text>
  <rect x="472" y="436" width="148" height="10" rx="5" fill="#8DA9BF"/>
  <rect x="472" y="460" width="104" height="26" rx="13" fill="#123726"/>

  <text x="864" y="420" fill="#E6F3FF" font-family="Segoe UI, Arial, sans-serif" font-size="16" font-weight="700">Neo4j</text>
  <rect x="864" y="436" width="188" height="10" rx="5" fill="#8DA9BF"/>
  <rect x="864" y="460" width="118" height="26" rx="13" fill="#123447"/>

  <text x="472" y="566" fill="#E6F3FF" font-family="Segoe UI, Arial, sans-serif" font-size="16" font-weight="700">Redis</text>
  <rect x="472" y="582" width="136" height="10" rx="5" fill="#8DA9BF"/>
  <rect x="472" y="606" width="104" height="26" rx="13" fill="#123726"/>

  <text x="864" y="566" fill="#E6F3FF" font-family="Segoe UI, Arial, sans-serif" font-size="16" font-weight="700">Reranker</text>
  <rect x="864" y="582" width="214" height="10" rx="5" fill="#8DA9BF"/>
  <rect x="864" y="606" width="118" height="26" rx="13" fill="#2D2312"/>
</svg>
