<svg width="1280" height="780" viewBox="0 0 1280 780" fill="none" xmlns="http://www.w3.org/2000/svg">
  <rect width="1280" height="780" rx="32" fill="#050A14"/>
  <rect x="28" y="28" width="1224" height="724" rx="26" fill="#09121F"/>
  <rect x="54" y="54" width="238" height="672" rx="24" fill="#0D1726"/>
  <rect x="326" y="54" width="900" height="76" rx="24" fill="#0D1726"/>
  <rect x="326" y="154" width="360" height="550" rx="28" fill="#0B1522"/>
  <rect x="708" y="154" width="518" height="250" rx="28" fill="#0B1522"/>
  <rect x="708" y="426" width="518" height="278" rx="28" fill="#0B1522"/>
  <rect x="360" y="250" width="292" height="170" rx="24" fill="#111E31"/>
  <rect x="360" y="438" width="162" height="42" rx="21" fill="#7AE7FF"/>
  <rect x="742" y="218" width="450" height="64" rx="20" fill="#111E31"/>
  <rect x="742" y="296" width="450" height="64" rx="20" fill="#111E31"/>
  <rect x="742" y="490" width="450" height="52" rx="18" fill="#111E31"/>
  <rect x="742" y="556" width="450" height="52" rx="18" fill="#111E31"/>
  <text x="86" y="100" fill="#C7D8E8" font-family="Arial, sans-serif" font-size="18">Navigation</text>
  <text x="354" y="98" fill="white" font-family="Arial, sans-serif" font-size="22" font-weight="700">Ask</text>
  <text x="360" y="204" fill="#C7D8E8" font-family="Arial, sans-serif" font-size="18">Run grounded query</text>
  <text x="742" y="190" fill="white" font-family="Arial, sans-serif" font-size="22" font-weight="700">Answer segments</text>
  <text x="742" y="462" fill="white" font-family="Arial, sans-serif" font-size="22" font-weight="700">Trace diagnostics</text>
</svg>

