<svg width="1280" height="780" viewBox="0 0 1280 780" fill="none" xmlns="http://www.w3.org/2000/svg">
  <defs>
    <linearGradient id="askBg" x1="52" y1="42" x2="1216" y2="740" gradientUnits="userSpaceOnUse">
      <stop stop-color="#0A1624"/>
      <stop offset="1" stop-color="#09111B"/>
    </linearGradient>
    <linearGradient id="askAccent" x1="785" y1="154" x2="1174" y2="622" gradientUnits="userSpaceOnUse">
      <stop stop-color="#7DD3FC" stop-opacity="0.24"/>
      <stop offset="1" stop-color="#14B8A6" stop-opacity="0"/>
    </linearGradient>
  </defs>

  <rect width="1280" height="780" rx="34" fill="#050A14"/>
  <rect x="24" y="24" width="1232" height="732" rx="28" fill="url(#askBg)" stroke="#173446" stroke-width="2"/>
  <rect x="24" y="24" width="1232" height="732" rx="28" fill="url(#askAccent)"/>

  <rect x="52" y="52" width="244" height="676" rx="24" fill="#0C1724"/>
  <rect x="322" y="52" width="904" height="84" rx="24" fill="#0D1B29"/>
  <rect x="322" y="160" width="378" height="546" rx="28" fill="#0C1724"/>
  <rect x="724" y="160" width="502" height="254" rx="28" fill="#0C1724"/>
  <rect x="724" y="438" width="502" height="268" rx="28" fill="#0C1724"/>

  <text x="84" y="98" fill="#E6F3FF" font-family="Segoe UI, Arial, sans-serif" font-size="22" font-weight="700">CITADEL</text>
  <text x="84" y="126" fill="#88A6BE" font-family="Segoe UI, Arial, sans-serif" font-size="14">Operator console</text>

  <rect x="84" y="164" width="156" height="34" rx="17" fill="#123447"/>
  <text x="108" y="186" fill="#D7F4FF" font-family="Segoe UI, Arial, sans-serif" font-size="13" font-weight="700">Ask workbench</text>
  <text x="84" y="242" fill="#A7C0D2" font-family="Segoe UI, Arial, sans-serif" font-size="15">Documents</text>
  <text x="84" y="278" fill="#A7C0D2" font-family="Segoe UI, Arial, sans-serif" font-size="15">Ingestion</text>
  <text x="84" y="314" fill="#A7C0D2" font-family="Segoe UI, Arial, sans-serif" font-size="15">Evals</text>
  <text x="84" y="350" fill="#A7C0D2" font-family="Segoe UI, Arial, sans-serif" font-size="15">Status</text>
  <text x="84" y="386" fill="#A7C0D2" font-family="Segoe UI, Arial, sans-serif" font-size="15">Settings</text>

  <text x="356" y="98" fill="#F8FBFF" font-family="Segoe UI, Arial, sans-serif" font-size="24" font-weight="700">Grounded query workbench</text>
  <text x="356" y="122" fill="#90A9BD" font-family="Segoe UI, Arial, sans-serif" font-size="14">Hybrid retrieval, visible evidence, and operator-safe trace detail.</text>

  <text x="356" y="204" fill="#E6F3FF" font-family="Segoe UI, Arial, sans-serif" font-size="22" font-weight="700">Run a query</text>
  <rect x="356" y="230" width="312" height="126" rx="22" fill="#112133"/>
  <text x="378" y="268" fill="#E6F3FF" font-family="Segoe UI, Arial, sans-serif" font-size="16" font-weight="700">What is the incident escalation policy</text>
  <text x="378" y="292" fill="#E6F3FF" font-family="Segoe UI, Arial, sans-serif" font-size="16" font-weight="700">for severity 1 outages?</text>
  <text x="378" y="326" fill="#89A8BF" font-family="Segoe UI, Arial, sans-serif" font-size="13">Top K 8 · graph hops 1 · rerank on</text>
  <rect x="356" y="376" width="166" height="42" rx="21" fill="#7DD3FC"/>
  <rect x="536" y="376" width="116" height="42" rx="21" fill="#123447"/>
  <text x="393" y="403" fill="#07111D" font-family="Segoe UI, Arial, sans-serif" font-size="15" font-weight="700">Run query</text>
  <text x="564" y="403" fill="#D6F4FF" font-family="Segoe UI, Arial, sans-serif" font-size="15" font-weight="700">Debug trace</text>

  <rect x="356" y="452" width="312" height="98" rx="22" fill="#0F1C2A"/>
  <text x="378" y="486" fill="#E6F3FF" font-family="Segoe UI, Arial, sans-serif" font-size="17" font-weight="700">Retrieval posture</text>
  <text x="378" y="514" fill="#89A8BF" font-family="Segoe UI, Arial, sans-serif" font-size="13">BM25, dense, graph expansion, cross-encoder rerank</text>
  <rect x="378" y="526" width="124" height="10" rx="5" fill="#163549"/>
  <rect x="378" y="526" width="86" height="10" rx="5" fill="#5EEAD4"/>
  <text x="514" y="535" fill="#D7F4FF" font-family="Segoe UI, Arial, sans-serif" font-size="11">latency 642 ms</text>

  <text x="758" y="202" fill="#F8FBFF" font-family="Segoe UI, Arial, sans-serif" font-size="22" font-weight="700">Answer with citations</text>
  <rect x="758" y="226" width="434" height="66" rx="20" fill="#112133"/>
  <text x="780" y="252" fill="#E6F3FF" font-family="Segoe UI, Arial, sans-serif" font-size="15" font-weight="700">Severity 1 incidents page the primary incident commander</text>
  <text x="780" y="274" fill="#E6F3FF" font-family="Segoe UI, Arial, sans-serif" font-size="15" font-weight="700">immediately and escalate to the on-call executive after 15 minutes.</text>
  <rect x="1084" y="240" width="82" height="24" rx="12" fill="#123447"/>
  <text x="1100" y="256" fill="#D7F4FF" font-family="Segoe UI, Arial, sans-serif" font-size="11" font-weight="700">runbook-021</text>

  <rect x="758" y="306" width="434" height="74" rx="20" fill="#0F1C2A"/>
  <text x="780" y="334" fill="#E6F3FF" font-family="Segoe UI, Arial, sans-serif" font-size="15" font-weight="700">Evidence spans mention paging, executive escalation, and the</text>
  <text x="780" y="356" fill="#E6F3FF" font-family="Segoe UI, Arial, sans-serif" font-size="15" font-weight="700">incident command handoff without unsupported additions.</text>
  <rect x="1070" y="320" width="96" height="24" rx="12" fill="#123726"/>
  <text x="1088" y="336" fill="#DCFCE7" font-family="Segoe UI, Arial, sans-serif" font-size="11" font-weight="700">grounded</text>

  <text x="758" y="480" fill="#F8FBFF" font-family="Segoe UI, Arial, sans-serif" font-size="22" font-weight="700">Trace diagnostics</text>
  <rect x="758" y="506" width="434" height="48" rx="18" fill="#112133"/>
  <rect x="758" y="570" width="434" height="48" rx="18" fill="#112133"/>
  <rect x="758" y="634" width="434" height="48" rx="18" fill="#112133"/>
  <circle cx="786" cy="530" r="8" fill="#7DD3FC"/>
  <circle cx="786" cy="594" r="8" fill="#5EEAD4"/>
  <circle cx="786" cy="658" r="8" fill="#F59E0B"/>
  <text x="808" y="535" fill="#DCE9F7" font-family="Segoe UI, Arial, sans-serif" font-size="14">BM25 + dense fusion returned 8 candidates</text>
  <text x="808" y="599" fill="#DCE9F7" font-family="Segoe UI, Arial, sans-serif" font-size="14">Graph expansion added ownership and policy-linked evidence</text>
  <text x="808" y="663" fill="#DCE9F7" font-family="Segoe UI, Arial, sans-serif" font-size="14">Citation validator suppressed unsupported segments</text>
</svg>
