<svg width="1280" height="780" viewBox="0 0 1280 780" fill="none" xmlns="http://www.w3.org/2000/svg">
  <defs>
    <linearGradient id="statusBg" x1="56" y1="48" x2="1218" y2="732" gradientUnits="userSpaceOnUse">
      <stop stop-color="#0A1624"/>
      <stop offset="1" stop-color="#09111B"/>
    </linearGradient>
  </defs>

  <rect width="1280" height="780" rx="34" fill="#050A14"/>
  <rect x="24" y="24" width="1232" height="732" rx="28" fill="url(#statusBg)" stroke="#173446" stroke-width="2"/>

  <rect x="52" y="52" width="1176" height="88" rx="24" fill="#0D1B29"/>
  <rect x="52" y="164" width="334" height="540" rx="28" fill="#0C1724"/>
  <rect x="410" y="164" width="818" height="540" rx="28" fill="#0C1724"/>

  <text x="84" y="98" fill="#F8FBFF" font-family="Segoe UI, Arial, sans-serif" font-size="26" font-weight="700">Status and provider posture</text>
  <text x="84" y="122" fill="#8EA8BD" font-family="Segoe UI, Arial, sans-serif" font-size="14">Dependency health, graph readiness, reranker posture, and degraded-mode visibility.</text>

  <text x="84" y="210" fill="#F8FBFF" font-family="Segoe UI, Arial, sans-serif" font-size="22" font-weight="700">Service readiness</text>
  <rect x="84" y="238" width="270" height="74" rx="22" fill="#112133"/>
  <rect x="84" y="330" width="270" height="74" rx="22" fill="#112133"/>
  <rect x="84" y="422" width="270" height="74" rx="22" fill="#112133"/>
  <circle cx="112" cy="275" r="8" fill="#5EEAD4"/>
  <circle cx="112" cy="367" r="8" fill="#5EEAD4"/>
  <circle cx="112" cy="459" r="8" fill="#F59E0B"/>
  <text x="136" y="270" fill="#E6F3FF" font-family="Segoe UI, Arial, sans-serif" font-size="15" font-weight="700">API ready</text>
  <text x="136" y="292" fill="#8DA9BF" font-family="Segoe UI, Arial, sans-serif" font-size="13">indexed documents present</text>
  <text x="136" y="362" fill="#E6F3FF" font-family="Segoe UI, Arial, sans-serif" font-size="15" font-weight="700">Graph available</text>
  <text x="136" y="384" fill="#8DA9BF" font-family="Segoe UI, Arial, sans-serif" font-size="13">bounded expansion enabled</text>
  <text x="136" y="454" fill="#E6F3FF" font-family="Segoe UI, Arial, sans-serif" font-size="15" font-weight="700">Generator optional</text>
  <text x="136" y="476" fill="#8DA9BF" font-family="Segoe UI, Arial, sans-serif" font-size="13">extractive fallback available</text>

  <text x="444" y="210" fill="#F8FBFF" font-family="Segoe UI, Arial, sans-serif" font-size="22" font-weight="700">Dependencies</text>
  <rect x="444" y="238" width="356" height="120" rx="24" fill="#112133"/>
  <rect x="836" y="238" width="356" height="120" rx="24" fill="#112133"/>
  <rect x="444" y="384" width="356" height="120" rx="24" fill="#112133"/>
  <rect x="836" y="384" width="356" height="120" rx="24" fill="#112133"/>
  <rect x="444" y="530" width="356" height="120" rx="24" fill="#112133"/>
  <rect x="836" y="530" width="356" height="120" rx="24" fill="#112133"/>

  <text x="472" y="274" fill="#E6F3FF" font-family="Segoe UI, Arial, sans-serif" font-size="16" font-weight="700">PostgreSQL</text>
  <text x="472" y="296" fill="#8DA9BF" font-family="Segoe UI, Arial, sans-serif" font-size="13">metadata, runs, eval history</text>
  <rect x="472" y="314" width="104" height="26" rx="13" fill="#123726"/>
  <text x="500" y="331" fill="#DCFCE7" font-family="Segoe UI, Arial, sans-serif" font-size="12" font-weight="700">healthy</text>

  <text x="864" y="274" fill="#E6F3FF" font-family="Segoe UI, Arial, sans-serif" font-size="16" font-weight="700">OpenSearch</text>
  <text x="864" y="296" fill="#8DA9BF" font-family="Segoe UI, Arial, sans-serif" font-size="13">lexical retrieval index</text>
  <rect x="864" y="314" width="104" height="26" rx="13" fill="#123726"/>
  <text x="892" y="331" fill="#DCFCE7" font-family="Segoe UI, Arial, sans-serif" font-size="12" font-weight="700">healthy</text>

  <text x="472" y="420" fill="#E6F3FF" font-family="Segoe UI, Arial, sans-serif" font-size="16" font-weight="700">Qdrant</text>
  <text x="472" y="442" fill="#8DA9BF" font-family="Segoe UI, Arial, sans-serif" font-size="13">dense retrieval collection</text>
  <rect x="472" y="460" width="104" height="26" rx="13" fill="#123726"/>
  <text x="500" y="477" fill="#DCFCE7" font-family="Segoe UI, Arial, sans-serif" font-size="12" font-weight="700">healthy</text>

  <text x="864" y="420" fill="#E6F3FF" font-family="Segoe UI, Arial, sans-serif" font-size="16" font-weight="700">Neo4j</text>
  <text x="864" y="442" fill="#8DA9BF" font-family="Segoe UI, Arial, sans-serif" font-size="13">graph relations and expansion hints</text>
  <rect x="864" y="460" width="118" height="26" rx="13" fill="#123447"/>
  <text x="894" y="477" fill="#D7F4FF" font-family="Segoe UI, Arial, sans-serif" font-size="12" font-weight="700">available</text>

  <text x="472" y="566" fill="#E6F3FF" font-family="Segoe UI, Arial, sans-serif" font-size="16" font-weight="700">Redis</text>
  <text x="472" y="588" fill="#8DA9BF" font-family="Segoe UI, Arial, sans-serif" font-size="13">cache and coordination</text>
  <rect x="472" y="606" width="104" height="26" rx="13" fill="#123726"/>
  <text x="500" y="623" fill="#DCFCE7" font-family="Segoe UI, Arial, sans-serif" font-size="12" font-weight="700">healthy</text>

  <text x="864" y="566" fill="#E6F3FF" font-family="Segoe UI, Arial, sans-serif" font-size="16" font-weight="700">Reranker</text>
  <text x="864" y="588" fill="#8DA9BF" font-family="Segoe UI, Arial, sans-serif" font-size="13">local cross-encoder or deterministic fallback</text>
  <rect x="864" y="606" width="118" height="26" rx="13" fill="#2D2312"/>
  <text x="884" y="623" fill="#FEF3C7" font-family="Segoe UI, Arial, sans-serif" font-size="12" font-weight="700">fallback ok</text>
</svg>
