<svg width="1280" height="780" viewBox="0 0 1280 780" fill="none" xmlns="http://www.w3.org/2000/svg">
  <defs>
    <linearGradient id="ingestBg" x1="56" y1="48" x2="1218" y2="732" gradientUnits="userSpaceOnUse">
      <stop stop-color="#0A1624"/>
      <stop offset="1" stop-color="#09111B"/>
    </linearGradient>
  </defs>

  <rect width="1280" height="780" rx="34" fill="#050A14"/>
  <rect x="24" y="24" width="1232" height="732" rx="28" fill="url(#ingestBg)" stroke="#173446" stroke-width="2"/>

  <rect x="52" y="52" width="1176" height="88" rx="24" fill="#0D1B29"/>
  <rect x="52" y="164" width="420" height="540" rx="28" fill="#0C1724"/>
  <rect x="496" y="164" width="732" height="540" rx="28" fill="#0C1724"/>

  <text x="84" y="98" fill="#F8FBFF" font-family="Segoe UI, Arial, sans-serif" font-size="26" font-weight="700">Ingestion console</text>

  <text x="86" y="210" fill="#F8FBFF" font-family="Segoe UI, Arial, sans-serif" font-size="22" font-weight="700">Source intake</text>
  <rect x="86" y="236" width="352" height="184" rx="24" fill="#112133"/>
  <rect x="110" y="262" width="138" height="40" rx="20" fill="#7DD3FC"/>
  <text x="141" y="288" fill="#07111D" font-family="Segoe UI, Arial, sans-serif" font-size="15" font-weight="700">Upload docs</text>
  <rect x="110" y="334" width="164" height="14" rx="7" fill="#DCE9F7"/>
  <rect x="110" y="360" width="208" height="10" rx="5" fill="#8DA9BF"/>
  <rect x="110" y="382" width="188" height="10" rx="5" fill="#8DA9BF"/>

  <rect x="86" y="444" width="352" height="116" rx="24" fill="#0F1C2A"/>
  <text x="110" y="480" fill="#E6F3FF" font-family="Segoe UI, Arial, sans-serif" font-size="17" font-weight="700">Index refresh</text>
  <rect x="110" y="500" width="236" height="10" rx="5" fill="#8DA9BF"/>
  <rect x="110" y="522" width="168" height="40" rx="20" fill="#123447"/>
  <text x="143" y="548" fill="#D7F4FF" font-family="Segoe UI, Arial, sans-serif" font-size="15" font-weight="700">Reindex corpus</text>

  <text x="530" y="210" fill="#F8FBFF" font-family="Segoe UI, Arial, sans-serif" font-size="22" font-weight="700">Recent runs</text>
  <rect x="530" y="236" width="664" height="90" rx="24" fill="#112133"/>
  <rect x="530" y="344" width="664" height="90" rx="24" fill="#112133"/>
  <rect x="530" y="452" width="664" height="90" rx="24" fill="#112133"/>
  <rect x="530" y="560" width="664" height="90" rx="24" fill="#112133"/>
  <circle cx="562" cy="282" r="8" fill="#5EEAD4"/>
  <circle cx="562" cy="390" r="8" fill="#7DD3FC"/>
  <circle cx="562" cy="498" r="8" fill="#F59E0B"/>
  <circle cx="562" cy="606" r="8" fill="#5EEAD4"/>
  <rect x="588" y="270" width="220" height="12" rx="6" fill="#DCE9F7"/>
  <rect x="588" y="294" width="188" height="10" rx="5" fill="#8DA9BF"/>
  <rect x="588" y="378" width="246" height="12" rx="6" fill="#DCE9F7"/>
  <rect x="588" y="402" width="214" height="10" rx="5" fill="#8DA9BF"/>
  <rect x="588" y="486" width="232" height="12" rx="6" fill="#DCE9F7"/>
  <rect x="588" y="510" width="240" height="10" rx="5" fill="#8DA9BF"/>
  <rect x="588" y="594" width="250" height="12" rx="6" fill="#DCE9F7"/>
  <rect x="588" y="618" width="228" height="10" rx="5" fill="#8DA9BF"/>
</svg>
